<svg width="24" height="24" viewBox="0 0 24 24" fill="none" xmlns="http://www.w3.org/2000/svg">
<path d="M6.40005 12L11.2 16L17.6 8.00005M12 23.2C10.5292 23.2 9.07284 22.9104 7.71399 22.3475C6.35515 21.7846 5.12047 20.9597 4.08045 19.9196C3.04044 18.8796 2.21545 17.645 1.6526 16.2861C1.08975 14.9273 0.800049 13.4709 0.800049 12C0.800049 10.5292 1.08975 9.07284 1.6526 7.71399C2.21545 6.35515 3.04044 5.12047 4.08045 4.08045C5.12047 3.04044 6.35515 2.21545 7.71399 1.6526C9.07284 1.08975 10.5292 0.800049 12 0.800049C14.9705 0.800049 17.8192 1.98005 19.9196 4.08045C22.0201 6.18086 23.2 9.02962 23.2 12C23.2 14.9705 22.0201 17.8192 19.9196 19.9196C17.8192 22.0201 14.9705 23.2 12 23.2Z" stroke="#367E34" stroke-width="1.6"/>
</svg>
