<svg width="16" height="16" viewBox="0 0 16 16" fill="none" xmlns="http://www.w3.org/2000/svg">
<path d="M10.305 5C10.075 5 9.88333 4.92333 9.73 4.77C9.57667 4.61667 9.5 4.421 9.5 4.183V0.817C9.5 0.579 9.578 0.383333 9.734 0.23C9.89 0.0766667 10.0833 0 10.314 0H15.194C15.4253 0 15.6173 0.0766667 15.77 0.23C15.9227 0.383333 15.9993 0.579 16 0.817V4.183C16 4.42167 15.922 4.61733 15.766 4.77C15.61 4.92333 15.4167 5 15.186 5H10.305ZM0.805 8C0.575 8 0.383333 7.92333 0.23 7.77C0.0766667 7.61667 0 7.42667 0 7.2V0.8C0 0.573334 0.0780002 0.383333 0.234 0.23C0.39 0.0766667 0.583333 0 0.814 0H5.694C5.92533 0 6.11733 0.0766667 6.27 0.23C6.42267 0.383333 6.49933 0.573334 6.5 0.8V7.2C6.5 7.42667 6.422 7.61667 6.266 7.77C6.11 7.92333 5.91667 8 5.686 8H0.805ZM10.305 16C10.075 16 9.88333 15.9233 9.73 15.77C9.57667 15.6167 9.5 15.4267 9.5 15.2V8.8C9.5 8.57333 9.578 8.38333 9.734 8.23C9.89 8.07667 10.0833 8 10.314 8H15.194C15.4253 8 15.6173 8.07667 15.77 8.23C15.9227 8.38333 15.9993 8.57333 16 8.8V15.2C16 15.4267 15.922 15.6167 15.766 15.77C15.61 15.9233 15.4167 16 15.186 16H10.305ZM0.805 16C0.575 16 0.383333 15.9233 0.23 15.77C0.0766667 15.6167 0 15.421 0 15.183V11.817C0 11.579 0.0780002 11.3833 0.234 11.23C0.39 11.0767 0.583333 11 0.814 11H5.694C5.92533 11 6.11733 11.0767 6.27 11.23C6.42267 11.3833 6.49933 11.579 6.5 11.817V15.183C6.5 15.4217 6.422 15.6173 6.266 15.77C6.11 15.9233 5.91667 16 5.686 16H0.805Z" fill="white"/>
</svg>
