<svg width="26" height="26" viewBox="0 0 26 26" fill="none" xmlns="http://www.w3.org/2000/svg">
<path d="M25 12.9972C25.0038 15.3796 24.2952 17.7086 22.9653 19.6852C21.8686 21.3212 20.3855 22.6618 18.6474 23.5883C16.9093 24.5148 14.9696 24.9987 13 24.9972C11.0304 24.9987 9.09071 24.5148 7.35259 23.5883C5.61447 22.6618 4.13144 21.3212 3.03467 19.6852C1.99031 18.1284 1.3252 16.3486 1.09267 14.4885C0.860146 12.6283 1.06666 10.7396 1.69566 8.9736C2.32467 7.20764 3.35866 5.61361 4.71476 4.31929C6.07085 3.02497 7.71133 2.06637 9.50468 1.52034C11.298 0.974298 13.1944 0.856011 15.0417 1.17496C16.889 1.49391 18.6358 2.24121 20.1423 3.35698C21.6487 4.47274 22.8728 5.92592 23.7164 7.60002C24.5599 9.27413 24.9996 11.1226 25 12.9972Z" stroke="#367E34" stroke-width="2"/>
<path d="M14.6668 8.99699C14.6668 9.91699 13.9201 10.6637 13.0001 10.6637V12.6637C13.9726 12.6637 14.9052 12.2773 15.5928 11.5897C16.2805 10.9021 16.6668 9.96945 16.6668 8.99699H14.6668ZM13.0001 10.6637C12.0801 10.6637 11.3334 9.91699 11.3334 8.99699H9.33344C9.33344 9.96945 9.71975 10.9021 10.4074 11.5897C11.095 12.2773 12.0276 12.6637 13.0001 12.6637V10.6637ZM11.3334 8.99699C11.3334 8.07699 12.0801 7.33032 13.0001 7.33032V5.33032C12.0276 5.33032 11.095 5.71663 10.4074 6.40426C9.71975 7.0919 9.33344 8.02453 9.33344 8.99699H11.3334ZM13.0001 7.33032C13.9201 7.33032 14.6668 8.07699 14.6668 8.99699H16.6668C16.6668 8.02453 16.2805 7.0919 15.5928 6.40426C14.9052 5.71663 13.9726 5.33032 13.0001 5.33032V7.33032ZM3.8881 20.805L2.92944 20.5197L2.77344 21.0423L3.12944 21.4557L3.8881 20.805ZM22.1121 20.805L22.8721 21.457L23.2268 21.0437L23.0708 20.5197L22.1121 20.805ZM9.0001 17.997H17.0001V15.997H9.0001V17.997ZM9.0001 15.997C7.63613 15.9966 6.30848 16.4366 5.21469 17.2515C4.12089 18.0664 3.31939 19.2126 2.92944 20.5197L4.84677 21.0903C5.11377 20.1963 5.6622 19.4123 6.41052 18.855C7.15883 18.2976 8.06705 17.9967 9.0001 17.997V15.997ZM13.0001 23.997C11.4127 23.9988 9.84372 23.6562 8.40155 22.9928C6.95938 22.3293 5.67832 21.3609 4.64677 20.1543L3.12944 21.4557C4.34872 22.881 5.86256 24.0263 7.56662 24.81C9.27068 25.5938 11.1244 25.9988 13.0001 25.997V23.997ZM17.0001 17.997C18.9601 17.997 20.6201 19.301 21.1534 21.0903L23.0708 20.5197C22.6808 19.2126 21.8793 18.0664 20.7855 17.2515C19.6917 16.4366 18.3641 15.9966 17.0001 15.997V17.997ZM21.3534 20.1543C20.3219 21.3609 19.0408 22.3293 17.5987 22.9928C16.1565 23.6562 14.5875 23.9988 13.0001 23.997V25.997C14.8758 25.9988 16.7295 25.5938 18.4336 24.81C20.1376 24.0263 21.6528 22.8823 22.8721 21.457L21.3534 20.1543Z" fill="#367E34"/>
</svg>
