<svg width="19" height="21" viewBox="0 0 19 21" fill="none" xmlns="http://www.w3.org/2000/svg">
<path d="M12.0156 16.5V17.25C12.0156 18.0456 11.6995 18.8087 11.1369 19.3713C10.5743 19.9339 9.81126 20.25 9.01561 20.25C8.21996 20.25 7.4569 19.9339 6.89429 19.3713C6.33168 18.8087 6.01561 18.0456 6.01561 17.25V16.5M17.0631 14.9733C15.8594 13.5 15.0095 12.75 15.0095 8.68828C15.0095 4.96875 13.1101 3.64359 11.5469 3C11.3392 2.91469 11.1437 2.71875 11.0805 2.50547C10.8062 1.57219 10.0375 0.75 9.01561 0.75C7.99374 0.75 7.22452 1.57266 6.95311 2.50641C6.88983 2.72203 6.69436 2.91469 6.48671 3C4.92155 3.64453 3.02405 4.965 3.02405 8.68828C3.02171 12.75 2.17186 13.5 0.968113 14.9733C0.469363 15.5836 0.906238 16.5 1.77858 16.5H16.2573C17.125 16.5 17.559 15.5808 17.0631 14.9733Z" stroke="#212121" stroke-opacity="0.75" stroke-width="1.5" stroke-linecap="round" stroke-linejoin="round"/>
</svg>
