<svg width="32" height="32" viewBox="0 0 32 32" fill="none" xmlns="http://www.w3.org/2000/svg">
<path d="M9.33325 9.33341C9.33325 8.62617 9.6142 7.94789 10.1143 7.4478C10.6144 6.9477 11.2927 6.66675 11.9999 6.66675H19.9999C20.7072 6.66675 21.3854 6.9477 21.8855 7.4478C22.3856 7.94789 22.6666 8.62617 22.6666 9.33341V10.6667C22.6666 11.374 22.3856 12.0523 21.8855 12.5524C21.3854 13.0525 20.7072 13.3334 19.9999 13.3334H11.9999C11.2927 13.3334 10.6144 13.0525 10.1143 12.5524C9.6142 12.0523 9.33325 11.374 9.33325 10.6667V9.33341ZM11.9999 8.66675C11.8231 8.66675 11.6535 8.73699 11.5285 8.86201C11.4035 8.98703 11.3333 9.1566 11.3333 9.33341V10.6667C11.3333 10.8436 11.4035 11.0131 11.5285 11.1382C11.6535 11.2632 11.8231 11.3334 11.9999 11.3334H19.9999C20.1767 11.3334 20.3463 11.2632 20.4713 11.1382C20.5963 11.0131 20.6666 10.8436 20.6666 10.6667V9.33341C20.6666 9.1566 20.5963 8.98703 20.4713 8.86201C20.3463 8.73699 20.1767 8.66675 19.9999 8.66675H11.9999ZM10.9999 19.3334C11.4419 19.3334 11.8659 19.1578 12.1784 18.8453C12.491 18.5327 12.6666 18.1088 12.6666 17.6667C12.6666 17.2247 12.491 16.8008 12.1784 16.4882C11.8659 16.1757 11.4419 16.0001 10.9999 16.0001C10.5579 16.0001 10.134 16.1757 9.82141 16.4882C9.50885 16.8008 9.33325 17.2247 9.33325 17.6667C9.33325 18.1088 9.50885 18.5327 9.82141 18.8453C10.134 19.1578 10.5579 19.3334 10.9999 19.3334ZM12.6666 23.0001C12.6666 23.4421 12.491 23.866 12.1784 24.1786C11.8659 24.4912 11.4419 24.6667 10.9999 24.6667C10.5579 24.6667 10.134 24.4912 9.82141 24.1786C9.50885 23.866 9.33325 23.4421 9.33325 23.0001C9.33325 22.5581 9.50885 22.1341 9.82141 21.8216C10.134 21.509 10.5579 21.3334 10.9999 21.3334C11.4419 21.3334 11.8659 21.509 12.1784 21.8216C12.491 22.1341 12.6666 22.5581 12.6666 23.0001ZM20.9999 19.3334C21.4419 19.3334 21.8659 19.1578 22.1784 18.8453C22.491 18.5327 22.6666 18.1088 22.6666 17.6667C22.6666 17.2247 22.491 16.8008 22.1784 16.4882C21.8659 16.1757 21.4419 16.0001 20.9999 16.0001C20.5579 16.0001 20.134 16.1757 19.8214 16.4882C19.5088 16.8008 19.3333 17.2247 19.3333 17.6667C19.3333 18.1088 19.5088 18.5327 19.8214 18.8453C20.134 19.1578 20.5579 19.3334 20.9999 19.3334ZM22.6666 23.0001C22.6666 23.4421 22.491 23.866 22.1784 24.1786C21.8659 24.4912 21.4419 24.6667 20.9999 24.6667C20.5579 24.6667 20.134 24.4912 19.8214 24.1786C19.5088 23.866 19.3333 23.4421 19.3333 23.0001C19.3333 22.5581 19.5088 22.1341 19.8214 21.8216C20.134 21.509 20.5579 21.3334 20.9999 21.3334C21.4419 21.3334 21.8659 21.509 22.1784 21.8216C22.491 22.1341 22.6666 22.5581 22.6666 23.0001ZM15.9999 19.3334C16.4419 19.3334 16.8659 19.1578 17.1784 18.8453C17.491 18.5327 17.6666 18.1088 17.6666 17.6667C17.6666 17.2247 17.491 16.8008 17.1784 16.4882C16.8659 16.1757 16.4419 16.0001 15.9999 16.0001C15.5579 16.0001 15.134 16.1757 14.8214 16.4882C14.5088 16.8008 14.3333 17.2247 14.3333 17.6667C14.3333 18.1088 14.5088 18.5327 14.8214 18.8453C15.134 19.1578 15.5579 19.3334 15.9999 19.3334ZM17.6666 23.0001C17.6666 23.4421 17.491 23.866 17.1784 24.1786C16.8659 24.4912 16.4419 24.6667 15.9999 24.6667C15.5579 24.6667 15.134 24.4912 14.8214 24.1786C14.5088 23.866 14.3333 23.4421 14.3333 23.0001C14.3333 22.5581 14.5088 22.1341 14.8214 21.8216C15.134 21.509 15.5579 21.3334 15.9999 21.3334C16.4419 21.3334 16.8659 21.509 17.1784 21.8216C17.491 22.1341 17.6666 22.5581 17.6666 23.0001ZM9.66659 2.66675C8.51731 2.66675 7.41511 3.12329 6.60246 3.93595C5.7898 4.74861 5.33325 5.85081 5.33325 7.00008V25.0001C5.33325 25.5691 5.44534 26.1326 5.66311 26.6584C5.88088 27.1841 6.20007 27.6618 6.60246 28.0642C7.00484 28.4666 7.48255 28.7858 8.00829 29.0036C8.53403 29.2213 9.09752 29.3334 9.66659 29.3334H22.3333C22.9023 29.3334 23.4658 29.2213 23.9915 29.0036C24.5173 28.7858 24.995 28.4666 25.3974 28.0642C25.7998 27.6618 26.119 27.1841 26.3367 26.6584C26.5545 26.1326 26.6666 25.5691 26.6666 25.0001V7.00008C26.6666 5.85081 26.21 4.74861 25.3974 3.93595C24.5847 3.12329 23.4825 2.66675 22.3333 2.66675H9.66659ZM7.33325 7.00008C7.33325 5.71208 8.37859 4.66675 9.66659 4.66675H22.3333C23.6213 4.66675 24.6666 5.71208 24.6666 7.00008V25.0001C24.6666 25.6189 24.4208 26.2124 23.9832 26.65C23.5456 27.0876 22.9521 27.3334 22.3333 27.3334H9.66659C9.04775 27.3334 8.45425 27.0876 8.01667 26.65C7.57908 26.2124 7.33325 25.6189 7.33325 25.0001V7.00008Z" fill="#367E34"/>
</svg>
